<svg width="59" height="22" viewBox="0 0 59 22" fill="none" xmlns="http://www.w3.org/2000/svg">
<path fill-rule="evenodd" clip-rule="evenodd" d="M30.8345 18.4307V13.014L24.6159 10.5748L27.8798 7.36513L23.6022 3.52295L22.3891 5.87468L22.4356 3.61379L17.0146 5.36666L17.1542 8.3139L18.0749 8.07166L19.0321 18.4711L22.8544 17.9025L22.8477 14.4304L30.8345 18.4307Z" fill="#0B0000"/>
<path fill-rule="evenodd" clip-rule="evenodd" d="M18.0342 6.12315L21.328 5.13065L21.5307 8.56573L23.957 5.11719L26.3268 7.40163L23.0131 10.9376L29.8333 13.6729V16.8187L21.9096 12.8049L21.9229 17.0104L19.8722 17.2931L18.998 6.77249L18.0741 7.01473L18.0342 6.12315Z" fill="white"/>
<path fill-rule="evenodd" clip-rule="evenodd" d="M43.0086 4.04053H39.419L39.316 4.63603H35.5403L33.7754 15.5603L38.0829 16.2467L38.3189 14.6789L39.4456 16.7816L40.1303 15.4392L40.3829 17.6429L45.2654 18.5143L43.0086 4.04053Z" fill="#0B0000"/>
<path fill-rule="evenodd" clip-rule="evenodd" d="M40.3633 5.05029H42.1913L44.0426 17.2194L41.3438 16.8022L40.6259 11.9877L39.6122 14.6423L38.0899 11.325H38.0733L37.4717 15.1705L34.9424 14.723L36.448 5.61215H39.0073L39.6454 9.1448L40.3633 5.05029Z" fill="white"/>
<path fill-rule="evenodd" clip-rule="evenodd" d="M47.5786 5.03662L52.9796 6.23772L53.3817 8.25638L53.8171 6.43622L58.4138 7.56331L53.9999 21.0244L50.6131 19.9444L50.5865 18.5953L47.3359 18.1343L48.4328 8.25638L47.6185 8.07134L47.5786 5.03662Z" fill="#0B0000"/>
<path fill-rule="evenodd" clip-rule="evenodd" d="M48.5393 6.29785L52.059 7.01448L53.2456 12.7004L54.4587 7.60325L57.1376 8.20548L53.3653 19.7724L51.4907 19.2038L51.3278 12.2125L50.3839 17.6057L48.3398 17.2793L49.2572 7.4855L48.4861 7.2769L48.5393 6.29785Z" fill="white"/>
<path fill-rule="evenodd" clip-rule="evenodd" d="M47.0607 16.5797C45.8941 17.0238 44.6544 16.9733 43.6573 16.435C42.7333 15.9404 42.0885 15.0825 41.8392 14.0227C41.3407 11.9098 42.72 9.49755 44.9136 8.64635C46.0935 8.19551 47.3432 8.24935 48.347 8.79102C49.261 9.28222 49.8992 10.12 50.1418 11.1495C50.6503 13.2926 49.271 15.7285 47.0607 16.5797Z" fill="#0B0000"/>
<path fill-rule="evenodd" clip-rule="evenodd" d="M49.2863 11.3451C48.8875 9.64946 47.0993 8.79826 45.2647 9.49806C43.4865 10.1878 42.3199 12.1358 42.722 13.8314C43.1342 15.581 44.9057 16.4288 46.7404 15.729C48.5318 15.0426 49.6984 13.0812 49.2863 11.3451Z" fill="white"/>
<path fill-rule="evenodd" clip-rule="evenodd" d="M47.9543 11.6438C47.9177 12.5791 47.1134 13.2856 46.1296 13.2452C45.1624 13.2049 44.4179 12.4378 44.4544 11.5025C44.491 10.6243 45.292 9.91782 46.2758 9.95819C47.2463 9.99856 47.9908 10.7657 47.9543 11.6438Z" fill="#0B0000"/>
<path fill-rule="evenodd" clip-rule="evenodd" d="M46.7037 9.99852C46.1154 9.97497 45.6235 10.3854 45.6002 10.9136C45.5803 11.4419 46.039 11.8927 46.6273 11.9162C47.2155 11.9398 47.7075 11.5293 47.7307 11.0011C47.7507 10.4729 47.292 10.0221 46.7037 9.99852Z" fill="white"/>
<path fill-rule="evenodd" clip-rule="evenodd" d="M17.2827 17.7578C16.0895 18.2692 14.7965 18.2692 13.7363 17.7545C12.7558 17.2767 12.0479 16.4154 11.7454 15.322C11.1405 13.1452 12.4733 10.5781 14.7201 9.5991C15.9266 9.08434 17.2295 9.08434 18.2964 9.60583C19.2669 10.0768 19.9649 10.9213 20.2607 11.9811C20.8789 14.1882 19.5428 16.7822 17.2827 17.7578Z" fill="#0B0000"/>
<path fill-rule="evenodd" clip-rule="evenodd" d="M19.4067 12.1155C18.9148 10.3525 17.007 9.53832 15.1125 10.3525C13.2745 11.1532 12.1344 13.2459 12.6263 15.0089C13.1315 16.829 15.026 17.6399 16.9205 16.829C18.7718 16.0283 19.9119 13.9188 19.4067 12.1155Z" fill="white"/>
<path fill-rule="evenodd" clip-rule="evenodd" d="M18.1248 12.4518C18.1248 13.3871 17.3504 14.1239 16.3666 14.1239C15.3994 14.1239 14.625 13.3871 14.625 12.4518C14.625 11.5737 15.3994 10.8335 16.3832 10.8335C17.3504 10.8335 18.1248 11.5703 18.1248 12.4518Z" fill="#0B0000"/>
<path fill-rule="evenodd" clip-rule="evenodd" d="M16.811 10.8569C16.2228 10.8569 15.7441 11.2876 15.7441 11.8158C15.7441 12.344 16.2194 12.7747 16.811 12.7747C17.3993 12.7747 17.8779 12.344 17.8779 11.8158C17.8779 11.2876 17.3993 10.8569 16.811 10.8569Z" fill="white"/>
<path fill-rule="evenodd" clip-rule="evenodd" d="M10.6989 14.5076C13.2648 12.5999 14.4879 9.71663 13.5606 7.5533C13.1552 6.60789 12.4439 5.82735 11.5731 5.33614C10.9615 4.92568 10.2336 4.66662 9.46918 4.57914C7.59462 4.24606 5.34449 4.58924 3.13091 5.54137C2.31661 5.89127 1.55549 6.295 0.870806 6.73574L0 7.29087L0.521819 8.18581L2.14378 10.9615C2.14378 10.9615 2.64233 11.816 2.64565 11.8127L3.52643 11.3787L3.64941 11.3181L7.68104 20.4323L8.06991 21.3071L8.97395 21.0144L11.1576 20.3078L12.1148 19.9983L11.8622 19.0159L10.6989 14.5076Z" fill="black"/>
<path fill-rule="evenodd" clip-rule="evenodd" d="M12.5859 7.98047C12.2635 7.2302 11.7085 6.64143 10.9839 6.2276C10.4588 5.87434 9.85054 5.69939 9.28219 5.63546C7.66688 5.34948 5.65605 5.61864 3.53886 6.52703C2.78438 6.85002 2.07976 7.22011 1.43164 7.6373L3.0536 10.4129C3.46906 10.2077 3.91776 9.98903 4.16039 9.85782L8.64404 19.9881L10.8277 19.2816L9.48161 14.0398C12.0641 12.435 13.367 9.80062 12.5859 7.98047Z" fill="white"/>
<path fill-rule="evenodd" clip-rule="evenodd" d="M35.524 10.6451L33.9885 9.24554L34.7429 8.43472L35.421 7.70463L34.7961 6.92745C33.5763 5.40673 31.6253 4.79777 29.5779 5.29907C26.7295 5.99214 25.1242 8.47509 25.759 11.1969C26.0149 12.2937 26.693 13.2324 27.6734 13.8414C28.8434 14.5714 30.3158 14.7699 31.8148 14.4032C33.3968 14.0163 34.5601 13.367 35.5805 12.3004L36.3981 11.4459L35.524 10.6451Z" fill="#0B0000"/>
<path fill-rule="evenodd" clip-rule="evenodd" d="M33.1633 9.98244C32.7778 10.4434 32.3357 10.8639 31.5513 11.0557C31.2887 11.1196 30.9331 11.1802 30.7071 11.1398L34.0075 7.5836C33.0769 6.42287 31.548 5.88457 29.8164 6.30848C27.6626 6.83333 26.2068 8.65013 26.7453 10.9649C27.1773 12.8254 29.2114 13.9659 31.5713 13.3906C33.0004 13.0407 33.9942 12.4822 34.885 11.5503L33.1633 9.98244Z" fill="white"/>
<path fill-rule="evenodd" clip-rule="evenodd" d="M28.0088 4.71356L32.0504 0L34.2872 3.38125L29.1787 6.16027L28.0088 4.71356Z" fill="#0B0000"/>
<path fill-rule="evenodd" clip-rule="evenodd" d="M31.8773 1.50049L33.0605 3.12887L29.6803 4.82454L29.4443 4.46455L31.8773 1.50049Z" fill="white"/>
<path fill-rule="evenodd" clip-rule="evenodd" d="M29.3715 10.036C29.1289 9.58857 29.1754 9.01325 29.5377 8.61288C29.8867 8.22597 30.4185 8.11495 30.8738 8.29326L29.3715 10.036ZM29.5377 8.61288C29.1788 9.01325 29.1289 9.58857 29.3715 10.036L30.8738 8.29326C30.4185 8.11495 29.8834 8.22597 29.5377 8.61288ZM31.7081 8.03084C30.937 7.32094 29.7471 7.37814 29.0458 8.15868C28.3445 8.93923 28.401 10.1437 29.1721 10.8536C29.2353 10.9142 29.3051 10.9646 29.3749 11.0117L31.8444 8.16541C31.7978 8.11831 31.7546 8.07457 31.7081 8.03084ZM29.3715 10.036C29.1289 9.58857 29.1754 9.01325 29.5377 8.61288C29.8867 8.22597 30.4185 8.11495 30.8738 8.29326L29.3715 10.036Z" fill="black"/>
<path fill-rule="evenodd" clip-rule="evenodd" d="M10.8883 9.71292C10.6956 8.63967 9.31625 8.03744 7.93359 8.78771L8.27926 10.0191L8.82434 11.8359L9.07362 12.6635C10.1106 12.0007 11.1542 11.2 10.8883 9.71292ZM9.51567 11.3548C9.3661 10.8568 9.0437 9.78358 9.0437 9.78358C9.04703 9.7903 8.97723 9.55143 8.90411 9.28564C9.19659 9.23181 9.47578 9.25873 9.70844 9.37312C9.83806 9.43704 10.0608 9.58171 10.1073 9.85759C10.217 10.4733 10.0076 10.914 9.51567 11.3548Z" fill="black"/>
<path fill-rule="evenodd" clip-rule="evenodd" d="M11.4805 21.9634C11.4838 21.9735 11.4871 21.9802 11.4904 21.9903C11.4904 21.9937 11.4938 21.997 11.4938 22.0004C11.4904 21.9869 11.4838 21.9768 11.4805 21.9634Z" fill="black"/>
<path fill-rule="evenodd" clip-rule="evenodd" d="M54.9736 19.8032H55.9674V19.9513H55.5553V21.0447H55.3858V19.9513H54.9736V19.8032Z" fill="black"/>
<path fill-rule="evenodd" clip-rule="evenodd" d="M56.1143 21.0447V19.8032H56.3536L56.7059 20.8529L57.0549 19.8032H57.2908V21.0447H57.1346V20.3113C57.1346 20.2843 57.1346 20.244 57.138 20.1868C57.138 20.1296 57.138 20.0656 57.138 19.9984L56.789 21.0447H56.6261L56.2738 19.9984V20.0354C56.2738 20.0656 56.2738 20.1128 56.2771 20.1733C56.2771 20.2339 56.2804 20.281 56.2804 20.3113V21.0447H56.1143Z" fill="black"/>
</svg>
